<svg width="687" height="347" xmlns="http://www.w3.org/2000/svg" xmlns:xlink="http://www.w3.org/1999/xlink" xml:space="preserve" overflow="hidden"><defs><clipPath id="clip0"><rect x="1857" y="1236" width="687" height="347"/></clipPath></defs><g clip-path="url(#clip0)" transform="translate(-1857 -1236)"><path d="M2301 1277 2119.25 1319.55 2119.25 1466.77C2110.33 1464.71 2099.36 1465.4 2088.73 1469.52 2066.44 1477.75 2052.72 1496.29 2058.21 1511.04 2063.7 1525.8 2085.99 1531.29 2108.28 1523.4 2128.51 1516.19 2141.54 1500.06 2139.82 1486.33L2139.82 1343.23 2280.42 1310.29 2280.42 1435.54C2271.51 1433.49 2260.53 1434.17 2249.56 1438.29 2227.27 1446.53 2213.55 1465.06 2219.04 1479.81 2224.53 1494.57 2246.82 1500.06 2269.11 1492.17 2287.63 1485.3 2299.97 1471.58 2301 1458.54L2301 1458.54 2301 1277Z" fill-rule="evenodd"/><path d="M1859.5 1274C1859.5 1254.39 1875.39 1238.5 1895 1238.5 1914.61 1238.5 1930.5 1254.39 1930.5 1274 1930.5 1293.61 1914.61 1309.5 1895 1309.5 1875.39 1309.5 1859.5 1293.61 1859.5 1274ZM1874.32 1274C1874.32 1285.42 1883.58 1294.68 1895 1294.68 1906.42 1294.68 1915.68 1285.42 1915.68 1274 1915.68 1262.58 1906.42 1253.32 1895 1253.32 1883.58 1253.32 1874.32 1262.58 1874.32 1274Z" stroke="#000000" stroke-width="4.58333" stroke-miterlimit="8" fill-rule="evenodd"/><path d="M1859.5 1409C1859.5 1389.39 1875.39 1373.5 1895 1373.5 1914.61 1373.5 1930.5 1389.39 1930.5 1409 1930.5 1428.61 1914.61 1444.5 1895 1444.5 1875.39 1444.5 1859.5 1428.61 1859.5 1409ZM1874.32 1409C1874.32 1420.42 1883.58 1429.68 1895 1429.68 1906.42 1429.68 1915.68 1420.42 1915.68 1409 1915.68 1397.58 1906.42 1388.32 1895 1388.32 1883.58 1388.32 1874.32 1397.58 1874.32 1409Z" stroke="#000000" stroke-width="4.58333" stroke-miterlimit="8" fill-rule="evenodd"/><path d="M1859.5 1544.5C1859.5 1524.62 1875.39 1508.5 1895 1508.5 1914.61 1508.5 1930.5 1524.62 1930.5 1544.5 1930.5 1564.38 1914.61 1580.5 1895 1580.5 1875.39 1580.5 1859.5 1564.38 1859.5 1544.5ZM1874.32 1544.5C1874.32 1556.2 1883.58 1565.68 1895 1565.68 1906.42 1565.68 1915.68 1556.2 1915.68 1544.5 1915.68 1532.8 1906.42 1523.32 1895 1523.32 1883.58 1523.32 1874.32 1532.8 1874.32 1544.5Z" stroke="#000000" stroke-width="4.58333" stroke-miterlimit="8" fill-rule="evenodd"/><path d="M2470.5 1274C2470.5 1254.39 2486.39 1238.5 2506 1238.5 2525.61 1238.5 2541.5 1254.39 2541.5 1274 2541.5 1293.61 2525.61 1309.5 2506 1309.5 2486.39 1309.5 2470.5 1293.61 2470.5 1274ZM2485.32 1274C2485.32 1285.42 2494.58 1294.68 2506 1294.68 2517.42 1294.68 2526.68 1285.42 2526.68 1274 2526.68 1262.58 2517.42 1253.32 2506 1253.32 2494.58 1253.32 2485.32 1262.58 2485.32 1274Z" stroke="#000000" stroke-width="4.58333" stroke-miterlimit="8" fill-rule="evenodd"/><path d="M2470.5 1409C2470.5 1389.39 2486.39 1373.5 2506 1373.5 2525.61 1373.5 2541.5 1389.39 2541.5 1409 2541.5 1428.61 2525.61 1444.5 2506 1444.5 2486.39 1444.5 2470.5 1428.61 2470.5 1409ZM2485.32 1409C2485.32 1420.42 2494.58 1429.68 2506 1429.68 2517.42 1429.68 2526.68 1420.42 2526.68 1409 2526.68 1397.58 2517.42 1388.32 2506 1388.32 2494.58 1388.32 2485.32 1397.58 2485.32 1409Z" stroke="#000000" stroke-width="4.58333" stroke-miterlimit="8" fill-rule="evenodd"/><path d="M2470.5 1544.5C2470.5 1524.62 2486.39 1508.5 2506 1508.5 2525.61 1508.5 2541.5 1524.62 2541.5 1544.5 2541.5 1564.38 2525.61 1580.5 2506 1580.5 2486.39 1580.5 2470.5 1564.38 2470.5 1544.5ZM2485.32 1544.5C2485.32 1556.2 2494.58 1565.68 2506 1565.68 2517.42 1565.68 2526.68 1556.2 2526.68 1544.5 2526.68 1532.8 2517.42 1523.32 2506 1523.32 2494.58 1523.32 2485.32 1532.8 2485.32 1544.5Z" stroke="#000000" stroke-width="4.58333" stroke-miterlimit="8" fill-rule="evenodd"/><path d="M1930 1410 2082.4 1410" stroke="#000000" stroke-width="13.75" stroke-miterlimit="8" fill="none" fill-rule="evenodd"/><path d="M1930.93 1273C1993.85 1273.38 2052.82 1298.53 2089.89 1340.79" stroke="#000000" stroke-width="13.75" stroke-miterlimit="8" fill="none" fill-rule="evenodd"/><path d="M2042.21 1517.51C2005.81 1539.11 1965.49 1549.47 1927.26 1547.02" stroke="#000000" stroke-width="13.75" stroke-miterlimit="8" fill="none" fill-rule="evenodd"/><path d="M0 0 152.396 0.000360892" stroke="#000000" stroke-width="13.75" stroke-miterlimit="8" fill="none" fill-rule="evenodd" transform="matrix(-1 0 0 1 2477.4 1410)"/><path d="M200.429 0.00435259C254.499 0.326201 306.084 18.8779 343.315 51.3913" stroke="#000000" stroke-width="13.75" stroke-miterlimit="8" fill="none" fill-rule="evenodd" transform="matrix(-1 0 0 1 2677 1274)"/><path d="M217.018 0.693982C276.488 5.23571 330.347 31.7261 363.704 72.8407" stroke="#000000" stroke-width="13.75" stroke-miterlimit="8" fill="none" fill-rule="evenodd" transform="matrix(0.707107 0.707107 0.707107 -0.707107 2166.2 1340.79)"/></g></svg>