<svg width="673" height="347" xmlns="http://www.w3.org/2000/svg" xmlns:xlink="http://www.w3.org/1999/xlink" xml:space="preserve" overflow="hidden"><defs><clipPath id="clip0"><rect x="1859" y="1270" width="673" height="347"/></clipPath></defs><g clip-path="url(#clip0)" transform="translate(-1859 -1270)"><path d="M2059.38 1542.66C2019.62 1570.39 1973.61 1584.18 1930.12 1581.4" stroke="#000000" stroke-width="13.75" stroke-miterlimit="8" fill="none" fill-rule="evenodd"/><path d="M2269 1537 2317 1537 2317 1557 2269 1557Z" fill-rule="evenodd"/><path d="M2269 1502 2317 1502 2317 1523 2269 1523Z" fill-rule="evenodd"/><path d="M2269 1468 2317 1468 2317 1489 2269 1489Z" fill-rule="evenodd"/><path d="M2269 1434 2317 1434 2317 1454 2269 1454Z" fill-rule="evenodd"/><path d="M2269 1399 2317 1399 2317 1420 2269 1420Z" fill-rule="evenodd"/><path d="M2269 1365 2317 1365 2317 1386 2269 1386Z" fill-rule="evenodd"/><path d="M2207 1537 2255 1537 2255 1557 2207 1557Z" fill-rule="evenodd"/><path d="M2207 1502 2255 1502 2255 1523 2207 1523Z" fill-rule="evenodd"/><path d="M2207 1468 2255 1468 2255 1489 2207 1489Z" fill-rule="evenodd"/><path d="M2145 1537 2193 1537 2193 1557 2145 1557Z" fill-rule="evenodd"/><path d="M2145 1502 2193 1502 2193 1523 2145 1523Z" fill-rule="evenodd"/><path d="M2145 1468 2193 1468 2193 1489 2145 1489Z" fill-rule="evenodd"/><path d="M2145 1434 2193 1434 2193 1454 2145 1454Z" fill-rule="evenodd"/><path d="M2145 1399 2193 1399 2193 1420 2145 1420Z" fill-rule="evenodd"/><path d="M2145 1365 2193 1365 2193 1386 2145 1386Z" fill-rule="evenodd"/><path d="M2145 1331 2193 1331 2193 1351 2145 1351Z" fill-rule="evenodd"/><path d="M2083 1537 2131 1537 2131 1557 2083 1557Z" fill-rule="evenodd"/><path d="M2083 1502 2131 1502 2131 1523 2083 1523Z" fill-rule="evenodd"/><path d="M2083 1468 2131 1468 2131 1489 2083 1489Z" fill-rule="evenodd"/><path d="M2083 1434 2131 1434 2131 1454 2083 1454Z" fill-rule="evenodd"/><path d="M2083 1399 2131 1399 2131 1420 2083 1420Z" fill-rule="evenodd"/><path d="M1861.5 1308C1861.5 1288.39 1877.39 1272.5 1897 1272.5 1916.61 1272.5 1932.5 1288.39 1932.5 1308 1932.5 1327.61 1916.61 1343.5 1897 1343.5 1877.39 1343.5 1861.5 1327.61 1861.5 1308ZM1876.32 1308C1876.32 1319.42 1885.58 1328.68 1897 1328.68 1908.42 1328.68 1917.68 1319.42 1917.68 1308 1917.68 1296.58 1908.42 1287.32 1897 1287.32 1885.58 1287.32 1876.32 1296.58 1876.32 1308Z" stroke="#000000" stroke-width="4.58333" stroke-miterlimit="8" fill-rule="evenodd"/><path d="M1861.5 1443C1861.5 1423.39 1877.39 1407.5 1897 1407.5 1916.61 1407.5 1932.5 1423.39 1932.5 1443 1932.5 1462.61 1916.61 1478.5 1897 1478.5 1877.39 1478.5 1861.5 1462.61 1861.5 1443ZM1876.32 1443C1876.32 1454.42 1885.58 1463.68 1897 1463.68 1908.42 1463.68 1917.68 1454.42 1917.68 1443 1917.68 1431.58 1908.42 1422.32 1897 1422.32 1885.58 1422.32 1876.32 1431.58 1876.32 1443Z" stroke="#000000" stroke-width="4.58333" stroke-miterlimit="8" fill-rule="evenodd"/><path d="M1861.5 1579C1861.5 1559.39 1877.39 1543.5 1897 1543.5 1916.61 1543.5 1932.5 1559.39 1932.5 1579 1932.5 1598.61 1916.61 1614.5 1897 1614.5 1877.39 1614.5 1861.5 1598.61 1861.5 1579ZM1876.32 1579C1876.32 1590.42 1885.58 1599.68 1897 1599.68 1908.42 1599.68 1917.68 1590.42 1917.68 1579 1917.68 1567.58 1908.42 1558.32 1897 1558.32 1885.58 1558.32 1876.32 1567.58 1876.32 1579Z" stroke="#000000" stroke-width="4.58333" stroke-miterlimit="8" fill-rule="evenodd"/><path d="M1932 1445 2055.18 1445" stroke="#000000" stroke-width="13.75" stroke-miterlimit="8" fill="none" fill-rule="evenodd"/><path d="M1933.93 1307C1980.44 1307.28 2025.36 1321.13 2060.84 1346.13" stroke="#000000" stroke-width="13.75" stroke-miterlimit="8" fill="none" fill-rule="evenodd"/><path d="M0 35.5001C-4.51963e-15 15.8939 15.8939-4.51964e-15 35.5001-9.03927e-15 55.1062-1.80785e-14 71.0002 15.8939 71.0002 35.5001 71.0002 55.1063 55.1062 71.0002 35.5001 71.0002 15.8939 71.0002-2.25982e-14 55.1063 0 35.5001ZM14.8163 35.5001C14.8163 46.9234 24.0768 56.1839 35.5001 56.1839 46.9234 56.1839 56.1838 46.9234 56.1838 35.5001 56.1838 24.0768 46.9234 14.8163 35.5001 14.8163 24.0768 14.8163 14.8163 24.0768 14.8163 35.5001Z" stroke="#000000" stroke-width="4.58333" stroke-miterlimit="8" fill-rule="evenodd" transform="matrix(-1 0 0 1 2529.5 1272.5)"/><path d="M0 35.5001C-4.51963e-15 15.8939 15.8939-4.51964e-15 35.5001-9.03927e-15 55.1062-1.80785e-14 71.0002 15.8939 71.0002 35.5001 71.0002 55.1063 55.1062 71.0002 35.5001 71.0002 15.8939 71.0002-2.25982e-14 55.1063 0 35.5001ZM14.8163 35.5001C14.8163 46.9234 24.0768 56.1839 35.5001 56.1839 46.9234 56.1839 56.1838 46.9234 56.1838 35.5001 56.1838 24.0768 46.9234 14.8163 35.5001 14.8163 24.0768 14.8163 14.8163 24.0768 14.8163 35.5001Z" stroke="#000000" stroke-width="4.58333" stroke-miterlimit="8" fill-rule="evenodd" transform="matrix(-1 0 0 1 2529.5 1407.5)"/><path d="M0 35.5001C-4.51963e-15 15.8939 15.8939-4.51963e-15 35.5001-9.03927e-15 55.1062-1.80785e-14 71.0002 15.8939 71.0002 35.5001 71.0002 55.1062 55.1062 71.0002 35.5001 71.0002 15.8939 71.0002-2.25982e-14 55.1062 0 35.5001ZM14.8163 35.5001C14.8163 46.9234 24.0768 56.1838 35.5001 56.1838 46.9234 56.1838 56.1838 46.9234 56.1838 35.5001 56.1838 24.0768 46.9234 14.8163 35.5001 14.8163 24.0768 14.8163 14.8163 24.0768 14.8163 35.5001Z" stroke="#000000" stroke-width="4.58333" stroke-miterlimit="8" fill-rule="evenodd" transform="matrix(-1 0 0 1 2529.5 1543.5)"/><path d="M0 0 123.184 0.000360892" stroke="#000000" stroke-width="13.75" stroke-miterlimit="8" fill="none" fill-rule="evenodd" transform="matrix(-1 0 0 1 2458.18 1445)"/><path d="M200.429 0.00435259C246.974 0.281411 291.931 14.0784 327.477 38.9954" stroke="#000000" stroke-width="13.75" stroke-miterlimit="8" fill="none" fill-rule="evenodd" transform="matrix(-1 0 0 1 2662 1307)"/><path d="M240.561 3.68123C288.285 12.1912 330.568 34.9758 359.354 67.6938" stroke="#000000" stroke-width="13.75" stroke-miterlimit="8" fill="none" fill-rule="evenodd" transform="matrix(0.707107 0.707107 0.707107 -0.707107 2163.63 1375.16)"/></g></svg>