<svg width="259" height="353" xmlns="http://www.w3.org/2000/svg" xmlns:xlink="http://www.w3.org/1999/xlink" xml:space="preserve" overflow="hidden"><defs><clipPath id="clip0"><rect x="1918" y="1206" width="259" height="353"/></clipPath></defs><g clip-path="url(#clip0)" transform="translate(-1918 -1206)"><path d="M1918 1269 1994 1269 1994 1295 1918 1295Z" fill-rule="evenodd"/><path d="M1918 1206 2025 1206 2025 1233 1918 1233Z" fill-rule="evenodd"/><path d="M1918 1322 2014 1322 2014 1349 1918 1349Z" fill-rule="evenodd"/><path d="M1918 1375 2048 1375 2048 1402 1918 1402Z" fill-rule="evenodd"/><path d="M1918 1429 2160 1429 2160 1455 1918 1455Z" fill-rule="evenodd"/><path d="M2025 1322 2122 1322 2122 1349 2025 1349Z" fill-rule="evenodd"/><path d="M2004 1269 2101 1269 2101 1295 2004 1295Z" fill-rule="evenodd"/><path d="M2112 1269 2177 1269 2177 1295 2112 1295Z" fill-rule="evenodd"/><path d="M2058 1375 2177 1375 2177 1402 2058 1402Z" fill-rule="evenodd"/><path d="M1918 1479 2048 1479 2048 1506 1918 1506Z" fill-rule="evenodd"/><path d="M1918 1533 2004 1533 2004 1559 1918 1559Z" fill-rule="evenodd"/><path d="M2058 1479 2134 1479 2134 1506 2058 1506Z" fill-rule="evenodd"/><path d="M2014 1533 2177 1533 2177 1559 2014 1559Z" fill-rule="evenodd"/></g></svg>