<svg width="2943" height="1962" xmlns="http://www.w3.org/2000/svg" xmlns:xlink="http://www.w3.org/1999/xlink" xml:space="preserve" overflow="hidden"><defs><clipPath id="clip0"><rect x="728" y="256" width="2943" height="1962"/></clipPath><clipPath id="clip1"><rect x="2508" y="1784" width="330" height="331"/></clipPath><clipPath id="clip2"><rect x="2508" y="1784" width="330" height="331"/></clipPath><clipPath id="clip3"><rect x="2508" y="1784" width="330" height="331"/></clipPath><clipPath id="clip4"><rect x="2035" y="825" width="330" height="330"/></clipPath><clipPath id="clip5"><rect x="2035" y="825" width="330" height="330"/></clipPath><clipPath id="clip6"><rect x="2035" y="825" width="330" height="330"/></clipPath><clipPath id="clip7"><rect x="1591" y="1784" width="331" height="331"/></clipPath><clipPath id="clip8"><rect x="1591" y="1784" width="331" height="331"/></clipPath><clipPath id="clip9"><rect x="1591" y="1784" width="331" height="331"/></clipPath></defs><g clip-path="url(#clip0)" transform="translate(-728 -256)"><path d="M1613.5 871C1613.5 547.085 1876.31 284.5 2200.5 284.5 2524.69 284.5 2787.5 547.085 2787.5 871 2787.5 1194.92 2524.69 1457.5 2200.5 1457.5 1876.31 1457.5 1613.5 1194.92 1613.5 871Z" stroke="#FFFFFF" stroke-width="4.58333" stroke-linecap="butt" stroke-linejoin="miter" stroke-miterlimit="8" stroke-opacity="1" fill="#70AD47" fill-rule="evenodd" fill-opacity="0.501961"/><text fill="#000000" fill-opacity="1" font-family="Aharoni,Aharoni_MSFontService,sans-serif" font-style="normal" font-variant="normal" font-weight="700" font-stretch="normal" font-size="128" text-anchor="start" direction="ltr" writing-mode="lr-tb" unicode-bidi="normal" text-decoration="none" transform="matrix(1 0 0 1 2030.45 780)">Lyrics</text><path d="M2037.5 1604.5C2037.5 1280.31 2300.08 1017.5 2624 1017.5 2947.92 1017.5 3210.5 1280.31 3210.5 1604.5 3210.5 1928.69 2947.92 2191.5 2624 2191.5 2300.08 2191.5 2037.5 1928.69 2037.5 1604.5Z" stroke="#FFFFFF" stroke-width="4.58333" stroke-linecap="butt" stroke-linejoin="miter" stroke-miterlimit="8" stroke-opacity="1" fill="#70AD47" fill-rule="evenodd" fill-opacity="0.501961"/><text fill="#000000" fill-opacity="1" font-family="Aharoni,Aharoni_MSFontService,sans-serif" font-style="normal" font-variant="normal" font-weight="700" font-stretch="normal" font-size="128" text-anchor="start" direction="ltr" writing-mode="lr-tb" unicode-bidi="normal" text-decoration="none" transform="matrix(1 0 0 1 2584.7 1613)">Chart </text><text fill="#000000" fill-opacity="1" font-family="Aharoni,Aharoni_MSFontService,sans-serif" font-style="normal" font-variant="normal" font-weight="700" font-stretch="normal" font-size="128" text-anchor="start" direction="ltr" writing-mode="lr-tb" unicode-bidi="normal" text-decoration="none" transform="matrix(1 0 0 1 2435.72 1727)">Placement</text><path d="M1190.5 1604.5C1190.5 1280.31 1453.08 1017.5 1777 1017.5 2100.92 1017.5 2363.5 1280.31 2363.5 1604.5 2363.5 1928.69 2100.92 2191.5 1777 2191.5 1453.08 2191.5 1190.5 1928.69 1190.5 1604.5Z" stroke="#FFFFFF" stroke-width="4.58333" stroke-linecap="butt" stroke-linejoin="miter" stroke-miterlimit="8" stroke-opacity="1" fill="#70AD47" fill-rule="evenodd" fill-opacity="0.501961"/><text fill="#000000" fill-opacity="1" font-family="Aharoni,Aharoni_MSFontService,sans-serif" font-style="normal" font-variant="normal" font-weight="700" font-stretch="normal" font-size="128" text-anchor="start" direction="ltr" writing-mode="lr-tb" unicode-bidi="normal" text-decoration="none" transform="matrix(1 0 0 1 1472.14 1613)">Audio </text><text fill="#000000" fill-opacity="1" font-family="Aharoni,Aharoni_MSFontService,sans-serif" font-style="normal" font-variant="normal" font-weight="700" font-stretch="normal" font-size="128" text-anchor="start" direction="ltr" writing-mode="lr-tb" unicode-bidi="normal" text-decoration="none" transform="matrix(1 0 0 1 1393.67 1727)">Features</text><g clip-path="url(#clip1)"><g clip-path="url(#clip2)"><g clip-path="url(#clip3)"><path d="M2758.59 1943.84C2746.56 1956.22 2735.22 1964.13 2710.47 1966.88 2717 1960.34 2724.56 1953.81 2731.09 1945.91 2733.84 1942.81 2739 1935.94 2739 1935.59 2744.84 1925.97 2748.28 1914.97 2748.28 1902.94L2748.28 1858.25 2772.34 1858.25 2772.34 1910.5C2772.69 1911.19 2773.38 1928.38 2758.59 1943.84ZM2587.75 1943.84C2572.62 1928.38 2573.31 1911.19 2573.31 1910.5L2573.31 1857.91 2597.38 1857.91 2597.38 1902.59C2597.38 1914.63 2600.81 1925.63 2606.66 1935.25 2606.66 1935.59 2611.81 1942.81 2614.56 1945.56 2621.44 1953.47 2628.66 1960 2635.19 1966.53 2611.12 1963.78 2599.44 1955.88 2587.75 1943.84ZM2793.31 1909.47 2793.31 1837.28 2748.62 1837.28 2748.62 1813.22 2673 1813.22 2597.38 1813.22 2597.38 1837.28 2552.69 1837.28 2552.69 1909.13C2552.69 1912.56 2552.69 1936.28 2572.28 1957.25 2591.19 1977.19 2614.22 1987.5 2654.44 1988.19 2657.53 1993.34 2659.25 1999.19 2659.25 2005.38L2659.25 2050.06 2642.06 2050.06C2634.5 2050.06 2628.31 2056.25 2628.31 2063.81L2611.12 2063.81C2603.56 2063.81 2597.38 2070 2597.38 2077.56L2597.38 2084.44 2748.62 2084.44 2748.62 2077.56C2748.62 2070 2742.44 2063.81 2734.88 2063.81L2717.69 2063.81C2717.69 2056.25 2711.5 2050.06 2703.94 2050.06L2686.75 2050.06 2686.75 2005.72C2686.75 1999.53 2688.47 1993.69 2691.56 1988.53 2731.78 1987.84 2754.81 1977.19 2773.72 1957.59 2793.31 1936.97 2793.31 1912.91 2793.31 1909.47Z" fill="#000000" fill-rule="nonzero" fill-opacity="1"/></g></g></g><g clip-path="url(#clip4)"><g clip-path="url(#clip5)"><g clip-path="url(#clip6)"><path d="M2305.19 883.438 2094.81 883.438C2088.32 883.475 2083.09 888.769 2083.12 895.262 2083.12 895.262 2083.12 895.263 2083.12 895.263L2083.12 1037.37C2083.09 1043.86 2088.32 1049.16 2094.81 1049.19 2094.81 1049.19 2094.81 1049.19 2094.81 1049.19L2223.38 1049.19 2270.12 1096.56 2270.12 1049.19 2305.19 1049.19C2311.68 1049.16 2316.91 1043.86 2316.88 1037.37 2316.88 1037.37 2316.88 1037.37 2316.88 1037.37L2316.88 895.263C2316.91 888.77 2311.68 883.476 2305.19 883.438 2305.19 883.438 2305.19 883.438 2305.19 883.438ZM2145 983.125C2135.51 983.125 2127.81 975.43 2127.81 965.938 2127.81 956.445 2135.51 948.75 2145 948.75 2154.49 948.75 2162.19 956.445 2162.19 965.938 2162.19 975.43 2154.49 983.125 2145 983.125ZM2200 983.125C2190.51 983.125 2182.81 975.43 2182.81 965.938 2182.81 956.445 2190.51 948.75 2200 948.75 2209.49 948.75 2217.19 956.445 2217.19 965.938 2217.19 975.43 2209.49 983.125 2200 983.125ZM2255 983.125C2245.51 983.125 2237.81 975.43 2237.81 965.938 2237.81 956.445 2245.51 948.75 2255 948.75 2264.49 948.75 2272.19 956.445 2272.19 965.938 2272.19 975.43 2264.49 983.125 2255 983.125Z" fill="#000000" fill-rule="nonzero" fill-opacity="1"/></g></g></g><g clip-path="url(#clip7)"><g clip-path="url(#clip8)"><g clip-path="url(#clip9)"><path d="M1660.75 1832.13 1640.12 1832.13 1640.12 2065.88 1873.87 2065.88 1873.87 2045.25 1660.75 2045.25Z" fill="#000000" fill-rule="nonzero" fill-opacity="1"/><path d="M1681.37 1904.31 1719.19 1904.31 1719.19 2024.63 1681.37 2024.63Z" fill="#000000" fill-rule="nonzero" fill-opacity="1"/><path d="M1732.94 1832.13 1770.75 1832.13 1770.75 2024.63 1732.94 2024.63Z" fill="#000000" fill-rule="nonzero" fill-opacity="1"/><path d="M1784.5 1904.31 1822.31 1904.31 1822.31 2024.63 1784.5 2024.63Z" fill="#000000" fill-rule="nonzero" fill-opacity="1"/><path d="M1836.06 1962.75 1873.87 1962.75 1873.87 2024.63 1836.06 2024.63Z" fill="#000000" fill-rule="nonzero" fill-opacity="1"/></g></g></g></g></svg>